<svg xmlns="http://www.w3.org/2000/svg" xmlns:xlink="http://www.w3.org/1999/xlink">
	<defs>
	<!-- =========================================== ТИПЫ ЗАДАЧ =========================================== -->
		<symbol id="Task-Epic">
			<rect width="24" height="24" rx="2" fill="#AA58C8" />
			<path d="M12 10V4L6 14H12V20L18 10H12Z" fill="white" />
		</symbol>

		<symbol id="Task-History">
			<rect width="24" height="24" rx="2" fill="#1E8C4A" />
			<path d="M12 1.5H21V13.5L16.5 9L12 13.5V1.5Z" fill="white" />
		</symbol>

		<symbol id="Task-Bug">
			<rect width="24" height="24" rx="2" fill="#F5444C" />
			<path d="M8.14704 4.00227C8.00737 4.02349 7.88207 4.09789 7.79871 4.20909C7.71535 4.32029 7.68076 4.45919 7.70255 4.59524C7.72434 4.73128 7.80073 4.85332 7.9149 4.93451C8.02907 5.01569 8.17168 5.04938 8.31136 5.02816C8.68423 5.02816 8.95808 5.17692 9.23299 5.44467C9.5079 5.71243 9.74384 6.09201 9.92395 6.50237C9.99031 6.65317 10.0367 6.80398 10.0883 6.9517C9.34885 7.76934 9.06973 8.97066 9.66063 9.86934C9.64799 9.87754 9.63956 9.89293 9.62798 9.90114L7.02739 8.20226C6.97142 8.16146 6.90767 8.13192 6.83985 8.11536C6.77204 8.09881 6.70152 8.09557 6.63241 8.10583C6.52968 8.12449 6.43498 8.17249 6.36034 8.24373C6.28571 8.31496 6.23452 8.40621 6.21329 8.50586C6.19206 8.60552 6.20175 8.70907 6.24112 8.80335C6.28049 8.89762 6.34776 8.97836 6.43439 9.03529L8.83695 10.6059C8.5947 10.8675 8.3714 11.1568 8.17864 11.4718L4.3931 13.2989C4.31728 13.3182 4.24686 13.3538 4.18696 13.4031C4.12707 13.4523 4.07921 13.514 4.04688 13.5835C4.01456 13.653 3.99857 13.7287 4.0001 13.8051C4.00163 13.8814 4.02062 13.9564 4.05571 14.0247C4.09079 14.0929 4.14108 14.1527 4.20289 14.1996C4.26471 14.2466 4.33651 14.2795 4.41304 14.2959C4.48957 14.3124 4.56891 14.312 4.64527 14.2948C4.72164 14.2776 4.7931 14.2441 4.85444 14.1965L7.55404 12.8824C7.37287 13.4784 7.25806 14.1093 7.25806 14.7741C7.25806 14.8172 7.25701 14.8593 7.25806 14.9024L5.25048 17.5317C5.20453 17.5862 5.17029 17.6492 5.14981 17.7168C5.12933 17.7845 5.12302 17.8554 5.13125 17.9255C5.13949 17.9956 5.1621 18.0633 5.19775 18.1247C5.2334 18.1861 5.28135 18.2399 5.33876 18.2829C5.39618 18.3259 5.46187 18.3572 5.53195 18.375C5.60204 18.3928 5.67507 18.3966 5.74671 18.3864C5.81836 18.3761 5.88716 18.3519 5.94902 18.3152C6.01088 18.2786 6.06454 18.2302 6.10681 18.1729L7.48979 16.4094C7.91953 18.0477 8.96124 19.3773 10.321 20C10.953 19.5896 11.4734 18.7751 11.4734 17.8518V11.6964C11.4734 11.3887 11.684 11.1835 12 11.1835C12.316 11.1835 12.5266 11.3887 12.5266 11.6964V17.8518C12.5266 18.7751 13.047 19.5896 13.679 20C15.0388 19.3773 16.0805 18.0477 16.5102 16.4094L17.8932 18.1729C17.9355 18.2302 17.9891 18.2786 18.051 18.3152C18.1128 18.3519 18.1816 18.3761 18.2533 18.3864C18.3249 18.3966 18.398 18.3928 18.468 18.375C18.5381 18.3572 18.6038 18.3259 18.6612 18.2829C18.7186 18.2399 18.7666 18.1861 18.8023 18.1247C18.8379 18.0633 18.8605 17.9956 18.8687 17.9255C18.877 17.8554 18.8707 17.7845 18.8502 17.7168C18.8297 17.6492 18.7955 17.5862 18.7495 17.5317L16.7419 14.9024C16.743 14.8593 16.7419 14.8172 16.7419 14.7741C16.7419 14.1093 16.6261 13.4794 16.446 12.8824L19.1456 14.1965C19.2069 14.2441 19.2784 14.2776 19.3547 14.2948C19.4311 14.312 19.5104 14.3124 19.587 14.2959C19.6635 14.2795 19.7353 14.2466 19.7971 14.1996C19.8589 14.1527 19.9092 14.0929 19.9443 14.0247C19.9794 13.9564 19.9984 13.8814 19.9999 13.8051C20.0014 13.7287 19.9854 13.653 19.9531 13.5835C19.9208 13.514 19.8729 13.4523 19.813 13.4031C19.7531 13.3538 19.6827 13.3182 19.6069 13.2989L15.8214 11.4718C15.6286 11.1568 15.4053 10.8675 15.163 10.6059L17.5656 9.03529C17.6668 8.96932 17.7413 8.87126 17.7766 8.75779C17.8119 8.64432 17.8058 8.52245 17.7592 8.4129C17.7127 8.30335 17.6286 8.21289 17.5213 8.15691C17.414 8.10092 17.2901 8.08288 17.1706 8.10583C17.0984 8.12395 17.0309 8.15682 16.9726 8.20226L14.372 9.90114C14.3594 9.89293 14.351 9.87754 14.3394 9.86934C15.0261 8.82498 14.5458 7.3754 13.5167 6.5988C13.5304 6.567 13.5357 6.53519 13.5494 6.50237C13.7306 6.09098 13.9655 5.71243 14.2404 5.44467C14.5153 5.17692 14.7891 5.02816 15.162 5.02816C15.3017 5.02816 15.4356 4.97412 15.5344 4.87792C15.6332 4.78173 15.6886 4.65126 15.6886 4.51522C15.6886 4.37917 15.6332 4.24871 15.5344 4.15251C15.4356 4.05631 15.3017 4.00227 15.162 4.00227C14.4816 4.00227 13.9001 4.30183 13.483 4.70808C13.067 5.11331 12.7752 5.63241 12.5614 6.11868C12.3845 6.07765 12.1928 6.05405 12.0021 6.05405C11.6345 6.05405 11.2943 6.13612 10.9815 6.27872C10.9583 6.22332 10.9404 6.17408 10.9151 6.11868C10.7013 5.63241 10.4095 5.11331 9.99347 4.70808C9.57742 4.30286 8.99495 4.00227 8.31452 4.00227C8.28159 3.99924 8.24844 3.99924 8.21551 4.00227C8.19341 4.00092 8.17125 4.00092 8.14915 4.00227H8.14704Z" fill="white" />
		</symbol>

		<symbol id="Task-Task">
			<rect width="24" height="24" rx="2" fill="#FF8D4C" />
			<path fill-rule="evenodd" clip-rule="evenodd" d="M20.6402 9.23177C21.0645 9.58534 21.1218 10.2159 20.7682 10.6402L13.2682 19.6402C13.0825 19.8631 12.8091 19.9943 12.519 19.9998C12.229 20.0053 11.9508 19.8846 11.7567 19.669L7.25671 14.669C6.88726 14.2584 6.92053 13.6262 7.33104 13.2567C7.74155 12.8872 8.37384 12.9205 8.7433 13.331L12.4709 17.4728L19.2318 9.35981C19.5854 8.93553 20.2159 8.87821 20.6402 9.23177Z" fill="white" />
		</symbol>

		<symbol id="Task-Subtask">
			<rect width="24" height="24" rx="2" fill="#5D8BFF" />
			<path fill-rule="evenodd" clip-rule="evenodd" d="M7.63636 4C5.62807 4 4 5.62807 4 7.63636C4 9.39566 5.2492 10.8629 6.90909 11.2V12.9697C6.90909 15.2457 8.75425 17.0909 11.0303 17.0909H12.8C13.1371 18.7508 14.6043 20 16.3636 20C18.3719 20 20 18.3719 20 16.3636C20 14.3553 18.3719 12.7273 16.3636 12.7273C14.6043 12.7273 13.1371 13.9765 12.8 15.6364H11.0303C9.55754 15.6364 8.36364 14.4425 8.36364 12.9697V11.2C10.0235 10.8629 11.2727 9.39566 11.2727 7.63636C11.2727 5.62807 9.64466 4 7.63636 4ZM5.45455 7.63636C5.45455 6.43135 6.43135 5.45455 7.63636 5.45455C8.84137 5.45455 9.81818 6.43135 9.81818 7.63636C9.81818 8.84137 8.84137 9.81818 7.63636 9.81818C6.43135 9.81818 5.45455 8.84137 5.45455 7.63636ZM14.1818 16.3636C14.1818 15.1586 15.1586 14.1818 16.3636 14.1818C17.5686 14.1818 18.5455 15.1586 18.5455 16.3636C18.5455 17.5686 17.5686 18.5455 16.3636 18.5455C15.1586 18.5455 14.1818 17.5686 14.1818 16.3636Z" fill="white" />
		</symbol>

		<symbol id="Task-Support">
			<rect width="24" height="24" rx="2" fill="#A3133E" />
			<path d="M22.0225 11.4341C22.7051 11.5782 23.3672 11.7936 24 12.0768V17.2914C23.9531 17.2408 23.9053 17.1911 23.8564 17.1423C23.3501 16.6359 22.749 16.2341 22.0874 15.9601C21.4253 15.6859 20.7163 15.5449 20 15.5449C19.2837 15.5449 18.5747 15.6859 17.9126 15.9601C17.251 16.2341 16.6499 16.6359 16.1436 17.1423C15.6367 17.6488 15.2354 18.25 14.9609 18.9117C14.687 19.5735 14.5459 20.2827 14.5459 20.9989C14.5459 21.7152 14.687 22.4244 14.9609 23.0861C15.0938 23.4062 15.2559 23.7121 15.4458 24H10.6904C10.5859 23.679 10.4985 23.3521 10.4272 23.0202L8.37305 22.3353C8.26416 22.2991 8.16992 22.2296 8.10303 22.1368C8.03613 22.044 8 21.9325 8 21.8181V20.1819C8 20.0675 8.03613 19.956 8.10303 19.8632C8.16992 19.7704 8.26416 19.7009 8.37305 19.6647L10.4351 18.9776C10.6841 17.7958 11.1465 16.6756 11.8042 15.6626L10.834 13.7228C10.7827 13.6204 10.7651 13.5045 10.7837 13.3915C10.8018 13.2785 10.8555 13.1741 10.9365 13.0932L12.0933 11.9363C12.1743 11.8554 12.2783 11.802 12.3916 11.7836C12.4502 11.7741 12.5098 11.7743 12.5674 11.7838C12.6211 11.7926 12.6733 11.8095 12.7227 11.8341L14.668 12.8067C15.6797 12.1453 16.7983 11.6784 17.9805 11.4256L18.6646 9.37283C18.7007 9.26431 18.7705 9.16989 18.8633 9.103C18.9561 9.03607 19.0674 9.00006 19.1821 9H20.8179C20.9326 9.00006 21.0439 9.03607 21.1367 9.103C21.1855 9.13806 21.2275 9.18066 21.2622 9.22888C21.2935 9.27271 21.3184 9.32117 21.3354 9.37283L22.0225 11.4341Z" fill="white" />
		</symbol>

		<symbol id="Task-Doc">
			<rect width="24" height="24" rx="2" fill="#09B8DA" />
			<path d="M6 5H13.5858L18 9.41421V19H6L6 5Z" stroke="white" stroke-width="2" />
			<path d="M13 5V10H19" stroke="white" stroke-width="2" />
		</symbol>

		<symbol id="Task-PreSaleStory">
			<rect width="24" height="24" rx="2" fill="#85BB65" />
			<path d="M8 5L14.5 5C16.433 5 18 6.567 18 8.5C18 10.433 16.433 12 14.5 12H8V5Z" stroke="white" stroke-width="2" />
			<path fill-rule="evenodd" clip-rule="evenodd" d="M7 5C7 4.44772 7.44772 4 8 4H9V12V15H14C14.5523 15 15 15.4477 15 16C15 16.5523 14.5523 17 14 17H9V19C9 19.5523 8.55228 20 8 20C7.44772 20 7 19.5523 7 19V17H6C5.44772 17 5 16.5523 5 16C5 15.4477 5.44772 15 6 15H7V13H6C5.44772 13 5 12.5523 5 12C5 11.4477 5.44772 11 6 11H7V5Z" fill="white" />
		</symbol>

		<symbol id="Task-Release">
			<rect width="24" height="24" rx="2" fill="#9E1068" />
			<path fill-rule="evenodd" clip-rule="evenodd" d="M9.43511 10.9322L10.4611 10.9851L11.1016 10.1818C12.6231 8.27387 14.7951 6.93752 17.715 6.28532C17.0633 9.20336 15.7256 11.3771 13.8135 12.906L13.0124 13.5466L13.0651 14.571L13.1041 15.3284L13.1042 15.3292C13.1061 15.3685 13.1032 15.409 13.096 15.4492L12.497 14.0055L10.7343 14.5871C10.6599 14.6116 10.5852 14.6352 10.5102 14.6579L9.34621 13.4942C9.36889 13.4192 9.39251 13.3444 9.41706 13.27L9.9971 11.5106L8.54269 10.9043C8.58771 10.895 8.63319 10.8911 8.67726 10.8932L8.67815 10.8933L9.43511 10.9322ZM19.792 4.20801C19.6396 4.0557 19.4181 3.97916 19.2042 4.00492C14.9875 4.51846 11.7377 6.17645 9.53795 8.93489L8.77809 8.89576C8.06024 8.85985 7.33933 9.13753 6.83114 9.64569C6.71542 9.76064 6.56666 9.88464 6.40861 10.0164L6.40861 10.0164C6.00117 10.356 5.5321 10.7469 5.40878 11.1667C5.35146 11.3618 5.39693 11.5813 5.52705 11.7376C5.81869 12.0879 6.42338 12.2801 6.95139 12.4479C7.16015 12.5142 7.35692 12.5768 7.51762 12.6438C7.49787 12.7037 7.47861 12.7638 7.45985 12.824C7.35465 13.1617 7.2651 13.5041 7.1915 13.8502C7.16319 13.9801 7.19147 14.1191 7.26505 14.2289C7.28216 14.2544 7.30172 14.2783 7.32358 14.3001L7.98276 14.9592L7.99776 14.9742L8.18191 15.1583L8.20361 15.18L8.51041 15.4867L8.81818 15.7944L8.84019 15.8164L9.0231 15.9993L9.03823 16.0144L9.70428 16.6804C9.72377 16.6998 9.7449 16.7175 9.76734 16.7332C9.87831 16.811 10.0211 16.8414 10.1543 16.8124C10.4991 16.7392 10.8402 16.6501 11.1767 16.5454C11.2383 16.5263 11.2997 16.5066 11.361 16.4864L12.0833 18.2275C12.1601 18.4158 12.3324 18.5592 12.5315 18.6005C12.7307 18.6417 12.9458 18.5786 13.0911 18.4362L14.3532 17.1743C14.8607 16.6658 15.1378 15.9452 15.1016 15.2278L15.0625 14.4681C17.8231 12.2607 19.4831 9.01151 19.9951 4.7956C20.0208 4.58175 19.9443 4.36032 19.792 4.20801ZM9.25313 17.1316C9.36156 17.3209 9.35104 17.57 9.22325 17.7482C9.15083 17.8492 9.05421 17.9618 8.93787 18.0814L8.92862 18.0909C8.83879 18.1827 8.73749 18.2785 8.6267 18.3761C8.49385 18.4932 8.34737 18.613 8.19071 18.7319C8.08622 18.8111 7.97721 18.89 7.86469 18.9673C6.68055 19.7812 5.10837 20.4284 4.34222 19.6481C3.57816 18.87 4.22001 17.3098 5.03004 16.1323C5.10731 16.02 5.18612 15.9111 5.26538 15.8067C5.38457 15.6498 5.50479 15.5031 5.62238 15.3699C5.71973 15.2596 5.81529 15.1587 5.90697 15.0691L5.91658 15.0597C6.0356 14.944 6.14794 14.8475 6.24901 14.7746C6.42993 14.6449 6.68382 14.636 6.87418 14.7496L6.87421 14.7496C6.88303 14.7549 6.89172 14.7604 6.90026 14.7662C7.09298 14.8971 7.18911 15.1485 7.1328 15.3745C7.09572 15.5178 7.05814 15.6916 7.0403 15.8709L7.03964 15.8776C7.01657 16.1161 7.02881 16.3639 7.12388 16.5619C7.13709 16.5894 7.1519 16.616 7.16844 16.6414C7.19257 16.6785 7.22037 16.7133 7.25225 16.7452C7.28421 16.7771 7.31907 16.805 7.35631 16.8291C7.38175 16.8456 7.40831 16.8604 7.43582 16.8736C7.63406 16.9686 7.88204 16.9808 8.12077 16.9576C8.30221 16.94 8.47831 16.902 8.62318 16.8646C8.84922 16.8083 9.10071 16.9044 9.23156 17.0971C9.2392 17.1083 9.24639 17.1198 9.25312 17.1316L9.25313 17.1316ZM6.89069 10.2977C6.89077 10.2976 6.89286 10.2988 6.89671 10.3013C6.89253 10.2989 6.89061 10.2977 6.89069 10.2977Z" fill="white" />
		</symbol>

	</defs>
</svg>
